REM DIRINDEX 1\2\6,1\2\7,1\2\8,1\2\9,1\3\10,1\3\11,1\4\12,1\4\13,1\4\14,1\5\15,1\5\16,1\5\17
REM DIRNAME folder01,folder02,folder03,folder04,folder05,folder06,folder07,folder08,folder09,folder10,folder11,folder12,folder13,folder14,folder15,folder16,folder17
TITLE ""
FILE "1400_3_sec08_0785_0800.mp3" MP3
  TRACK 01 AUDIO
    TITLE "0:"
    INDEX 01 00:00:00
  TRACK 02 AUDIO
    TITLE "17:cjc029_6004"
    INDEX 01 00:00:13
  TRACK 03 AUDIO
    TITLE "0:"
    INDEX 01 00:02:06
  TRACK 04 AUDIO
    TITLE "16:cjc029_6005"
    INDEX 01 00:02:10
  TRACK 05 AUDIO
    TITLE "0:"
    INDEX 01 00:03:25
  TRACK 06 AUDIO
    TITLE "17:cjc029_6006"
    INDEX 01 00:04:09
  TRACK 07 AUDIO
    TITLE "0:"
    INDEX 01 00:06:43
  TRACK 08 AUDIO
    TITLE "16:cjc029_6007"
    INDEX 01 00:06:47
  TRACK 09 AUDIO
    TITLE "0:"
    INDEX 01 00:07:68
  TRACK 10 AUDIO
    TITLE "17:cjc029_6008"
    INDEX 01 00:08:54
  TRACK 11 AUDIO
    TITLE "0:"
    INDEX 01 00:10:29
  TRACK 12 AUDIO
    TITLE "16:cjc029_6009"
    INDEX 01 00:10:33
  TRACK 13 AUDIO
    TITLE "0:"
    INDEX 01 00:11:52
  TRACK 14 AUDIO
    TITLE "17:cjc029_6010"
    INDEX 01 00:12:36
  TRACK 15 AUDIO
    TITLE "0:"
    INDEX 01 00:13:51
  TRACK 16 AUDIO
    TITLE "16:cjc029_6011"
    INDEX 01 00:13:57
  TRACK 17 AUDIO
    TITLE "0:"
    INDEX 01 00:15:05
  TRACK 18 AUDIO
    TITLE "17:cjc029_6012"
    INDEX 01 00:15:62
  TRACK 19 AUDIO
    TITLE "0:"
    INDEX 01 00:16:73
  TRACK 20 AUDIO
    TITLE "16:cjc029_6013"
    INDEX 01 00:17:10
  TRACK 21 AUDIO
    TITLE "0:"
    INDEX 01 00:18:05
  TRACK 22 AUDIO
    TITLE "17:cjc029_6014"
    INDEX 01 00:18:66
  TRACK 23 AUDIO
    TITLE "0:"
    INDEX 01 00:20:24
  TRACK 24 AUDIO
    TITLE "16:cjc029_6015"
    INDEX 01 00:20:30
  TRACK 25 AUDIO
    TITLE "0:"
    INDEX 01 00:21:74
  TRACK 26 AUDIO
    TITLE "17:cjc029_6016"
    INDEX 01 00:22:58
  TRACK 27 AUDIO
    TITLE "0:"
    INDEX 01 00:24:10
  TRACK 28 AUDIO
    TITLE "16:cjc029_6017"
    INDEX 01 00:24:14
  TRACK 29 AUDIO
    TITLE "0:"
    INDEX 01 00:25:35
  TRACK 30 AUDIO
    TITLE "17:cjc029_6018"
    INDEX 01 00:26:20
  TRACK 31 AUDIO
    TITLE "0:"
    INDEX 01 00:27:30
  TRACK 32 AUDIO
    TITLE "16:cjc029_6019"
    INDEX 01 00:27:36
  TRACK 33 AUDIO
    TITLE "0:"
    INDEX 01 00:28:43
  TRACK 34 AUDIO
    TITLE "17:cjc029_6020"
    INDEX 01 00:29:27
  TRACK 35 AUDIO
    TITLE "0:"
    INDEX 01 00:30:55
  TRACK 36 AUDIO
    TITLE "16:cjc029_6021"
    INDEX 01 00:30:61
  TRACK 37 AUDIO
    TITLE "0:"
    INDEX 01 00:32:01
  TRACK 38 AUDIO
    TITLE "17:cjc029_6022"
    INDEX 01 00:32:60
  TRACK 39 AUDIO
    TITLE "0:"
    INDEX 01 00:34:51
  TRACK 40 AUDIO
    TITLE "16:cjc029_6023"
    INDEX 01 00:34:53
  TRACK 41 AUDIO
    TITLE "0:"
    INDEX 01 00:36:05
  TRACK 42 AUDIO
    TITLE "17:cjc029_6024"
    INDEX 01 00:36:64
  TRACK 43 AUDIO
    TITLE "0:"
    INDEX 01 00:38:12
  TRACK 44 AUDIO
    TITLE "16:cjc029_6025"
    INDEX 01 00:38:18
  TRACK 45 AUDIO
    TITLE "0:"
    INDEX 01 00:39:35
  TRACK 46 AUDIO
    TITLE "17:cjc029_6026"
    INDEX 01 00:40:19
  TRACK 47 AUDIO
    TITLE "0:"
    INDEX 01 00:41:28
  TRACK 48 AUDIO
    TITLE "16:cjc029_6027"
    INDEX 01 00:41:34
  TRACK 49 AUDIO
    TITLE "0:"
    INDEX 01 00:42:39
  TRACK 50 AUDIO
    TITLE "17:cjc029_6028"
    INDEX 01 00:43:23
  TRACK 51 AUDIO
    TITLE "0:"
    INDEX 01 00:46:00
  TRACK 52 AUDIO
    TITLE "16:cjc029_6029"
    INDEX 01 00:46:09
  TRACK 53 AUDIO
    TITLE "0:"
    INDEX 01 00:47:17
  TRACK 54 AUDIO
    TITLE "17:cjc029_6030"
    INDEX 01 00:48:04
  TRACK 55 AUDIO
    TITLE "0:"
    INDEX 01 00:49:37
  TRACK 56 AUDIO
    TITLE "16:cjc029_6031"
    INDEX 01 00:49:43
  TRACK 57 AUDIO
    TITLE "0:"
    INDEX 01 00:50:74
  TRACK 58 AUDIO
    TITLE "17:cjc029_6032"
    INDEX 01 00:51:62
  TRACK 59 AUDIO
    TITLE "0:"
    INDEX 01 00:53:15
  TRACK 60 AUDIO
    TITLE "16:cjc029_6033"
    INDEX 01 00:53:19
  TRACK 61 AUDIO
    TITLE "0:"
    INDEX 01 00:54:38
  TRACK 62 AUDIO
    TITLE "17:cjc029_6034"
    INDEX 01 00:55:24
  TRACK 63 AUDIO
    TITLE "0:"
    INDEX 01 00:56:55
  TRACK 64 AUDIO
    TITLE "16:cjc029_6035"
    INDEX 01 00:56:61
  TRACK 65 AUDIO
    TITLE "0:"
    INDEX 01 00:57:56
